<svg width="152" height="54" viewBox="0 0 152 54" fill="none" xmlns="http://www.w3.org/2000/svg">
<path d="M42.5039 35.2295V48L25.668 34.9131L33.7686 28.7461L42.5039 35.2295ZM29.374 25.4854L0 47.7715V35.1006L21.1387 19.3691L29.374 25.4854ZM33.4473 47.6299H8.96875L21.2881 38.2471L33.4473 47.6299ZM16.709 16.0811L0 28.9385V15.9033L8.19043 9.75684L16.709 16.0811ZM42.5732 16.1162L42.4502 28.8242L13 6.14648L21.1875 0L42.5732 16.1162ZM29.3779 25.9844H29.375V24.9844H29.3779V25.9844Z" fill="#127FFF"/>
<path d="M62.5742 33.5154V6H74.0707C76.2444 6 78.0223 6.34886 79.4043 7.04658C80.7864 7.74429 81.8042 8.71476 82.4575 9.95796C83.1109 11.1885 83.4375 12.6093 83.4375 14.2204C83.4375 15.6666 83.2114 16.8907 82.7591 17.8929C82.3193 18.8824 81.7351 19.707 81.0063 20.3666C80.2901 21.0263 79.5049 21.5654 78.6505 21.9841L83.7202 33.5154H78.0097L73.5807 22.9165H68.0586V33.5154H62.5742ZM68.0586 18.635H73.0907C74.5607 18.635 75.723 18.2354 76.5773 17.4362C77.4443 16.637 77.8778 15.6095 77.8778 14.3536C77.8778 13.085 77.4631 12.0828 76.6339 11.3471C75.8046 10.6113 74.7555 10.2434 73.4865 10.2434H68.0586V18.635Z" fill="white"/>
<path d="M88.0685 33.5154V13.8398H93.3268V33.5154H88.0685ZM88.012 11.0236V6.01903H93.3645V11.0236H88.012Z" fill="white"/>
<path d="M103.527 33.5154L96.2142 13.8398H101.19L105.449 26.3797H105.6L109.803 13.8398H114.835L107.522 33.5154H103.527Z" fill="white"/>
<path d="M126.044 33.896C124.109 33.896 122.407 33.4901 120.937 32.6782C119.479 31.8536 118.342 30.6929 117.525 29.1959C116.709 27.699 116.3 25.9357 116.3 23.906C116.3 21.9397 116.671 20.17 117.412 18.597C118.166 17.0113 119.247 15.7617 120.654 14.8483C122.061 13.9223 123.764 13.4592 125.761 13.4592C127.747 13.4592 129.411 13.8842 130.756 14.7342C132.1 15.5714 133.118 16.7448 133.809 18.2545C134.5 19.7514 134.846 21.483 134.846 23.4493V24.9525H121.747C121.747 25.9547 121.91 26.83 122.237 27.5785C122.564 28.3143 123.035 28.8851 123.651 29.2911C124.279 29.6843 125.033 29.881 125.912 29.881C126.855 29.881 127.677 29.678 128.381 29.272C129.085 28.8661 129.581 28.2001 129.87 27.274H134.827C134.601 28.6695 134.048 29.8619 133.168 30.8514C132.289 31.8409 131.221 32.5957 129.964 33.1158C128.708 33.636 127.401 33.896 126.044 33.896ZM121.747 21.6416H129.7C129.7 20.855 129.55 20.1319 129.248 19.4723C128.959 18.8126 128.519 18.2925 127.929 17.9119C127.351 17.5314 126.622 17.3411 125.743 17.3411C124.901 17.3411 124.178 17.5504 123.575 17.969C122.985 18.375 122.526 18.9078 122.199 19.5674C121.885 20.2271 121.734 20.9185 121.747 21.6416Z" fill="white"/>
<path d="M138.81 33.5154V13.8398H144.106V18.5018C144.42 17.4997 144.86 16.6243 145.425 15.8759C146.003 15.1147 146.7 14.5248 147.517 14.1062C148.334 13.6749 149.257 13.4592 150.287 13.4592C150.463 13.4592 150.627 13.4719 150.777 13.4973C150.941 13.51 151.06 13.5353 151.136 13.5734V18.8634C151.023 18.8126 150.884 18.7809 150.721 18.7682C150.57 18.7555 150.432 18.7429 150.306 18.7302C149.226 18.6414 148.302 18.6731 147.536 18.8253C146.769 18.9775 146.147 19.2376 145.67 19.6055C145.193 19.9734 144.847 20.4237 144.633 20.9565C144.42 21.4893 144.313 22.0856 144.313 22.7452V33.5154H138.81Z" fill="white"/>
<path d="M62.5742 53.8297V41.5002H70.5856L70.5769 42.8901H64.2081V46.9146H69.9444V48.2959H64.1993V52.4057L70.7525 52.4228V53.8297H62.5742Z" fill="white"/>
<path d="M75.2049 53.9405C74.713 53.9405 74.3147 53.8751 74.0102 53.7444C73.7115 53.6137 73.4802 53.4374 73.3162 53.2158C73.1581 52.9941 73.0498 52.7411 72.9912 52.4569C72.9385 52.167 72.9121 51.8686 72.9121 51.5616V41.1592H74.5109V51.4081C74.5109 51.8515 74.5988 52.184 74.7744 52.4057C74.956 52.6274 75.2078 52.7496 75.5299 52.7724L76.0218 52.7809V53.8041C75.8871 53.8439 75.7466 53.8751 75.6002 53.8979C75.4538 53.9263 75.322 53.9405 75.2049 53.9405Z" fill="white"/>
<path d="M81.6407 54.0002C80.7974 54.0002 80.0537 53.8211 79.4095 53.463C78.7653 53.1049 78.2616 52.5905 77.8986 51.9197C77.5355 51.249 77.3539 50.4446 77.3539 49.5067C77.3539 48.5801 77.5179 47.7673 77.8458 47.0681C78.1738 46.3689 78.6482 45.8232 79.2689 45.431C79.8955 45.0388 80.6481 44.8427 81.5265 44.8427C82.3815 44.8427 83.1048 45.0217 83.6963 45.3798C84.2878 45.7379 84.7358 46.2439 85.0403 46.8976C85.3507 47.5456 85.5059 48.3158 85.5059 49.2083V49.7881H78.9966C78.9966 50.3451 79.0903 50.8511 79.2777 51.3058C79.471 51.7549 79.7609 52.113 80.1474 52.3801C80.5339 52.6473 81.0229 52.7809 81.6144 52.7809C82.1941 52.7809 82.6919 52.6502 83.1077 52.3887C83.5294 52.1272 83.7988 51.7492 83.9159 51.2546H85.4444C85.339 51.8515 85.093 52.3546 84.7065 52.7638C84.3258 53.1731 83.8661 53.4829 83.3273 53.6932C82.7944 53.8979 82.2322 54.0002 81.6407 54.0002ZM79.0054 48.7222H83.9423C83.9423 48.2163 83.8544 47.7616 83.6787 47.358C83.503 46.9487 83.2336 46.6276 82.8705 46.3945C82.5133 46.1558 82.0624 46.0364 81.5177 46.0364C80.9497 46.0364 80.4783 46.17 80.1034 46.4371C79.7286 46.6986 79.4505 47.0368 79.2689 47.4518C79.0874 47.8611 78.9995 48.2846 79.0054 48.7222Z" fill="white"/>
<path d="M91.4074 54.0002C90.5875 54.0002 89.8613 53.8268 89.2288 53.4801C88.6022 53.1333 88.1103 52.6217 87.7531 51.9453C87.4017 51.2689 87.226 50.4389 87.226 49.4555C87.226 48.5347 87.387 47.7303 87.7091 47.0425C88.0371 46.349 88.5114 45.809 89.1322 45.4225C89.7588 45.0359 90.5172 44.8427 91.4074 44.8427C92.0574 44.8427 92.6401 44.9649 93.1555 45.2093C93.6767 45.448 94.1042 45.7891 94.438 46.2325C94.7718 46.6759 94.9768 47.1988 95.0529 47.8014H93.6123C93.5596 47.4944 93.4366 47.213 93.2433 46.9572C93.0559 46.7015 92.807 46.4968 92.4967 46.3433C92.1921 46.1899 91.832 46.1131 91.4162 46.1131C90.6373 46.1131 90.0019 46.386 89.5099 46.9317C89.0239 47.4774 88.7808 48.313 88.7808 49.4385C88.7808 50.456 89.0034 51.2717 89.4485 51.8856C89.8994 52.4938 90.5612 52.798 91.4337 52.798C91.8495 52.798 92.2126 52.7212 92.523 52.5677C92.8334 52.4086 93.0823 52.2011 93.2697 51.9453C93.4571 51.6838 93.5771 51.4053 93.6299 51.1097H95.0441C94.968 51.7009 94.7601 52.2125 94.4205 52.6445C94.0866 53.0765 93.6591 53.4119 93.1379 53.6506C92.6226 53.8837 92.0457 54.0002 91.4074 54.0002Z" fill="white"/>
<path d="M100.227 53.8723C99.6005 53.8723 99.1144 53.7899 98.7689 53.625C98.4234 53.4602 98.1803 53.2158 98.0398 52.8917C97.9051 52.5677 97.8377 52.1698 97.8377 51.698V46.1643H96.3619V45.0132H97.8817L98.277 42.4467H99.4716V45.0047H101.518V46.1643H99.4716V51.6469C99.4716 51.9595 99.5039 52.1897 99.5683 52.3375C99.6385 52.4796 99.7527 52.5706 99.9109 52.6104C100.069 52.6502 100.292 52.6701 100.578 52.6701H101.571V53.7273C101.46 53.7671 101.29 53.8012 101.062 53.8297C100.839 53.8581 100.561 53.8723 100.227 53.8723Z" fill="white"/>
<path d="M103.726 53.8297V45.0132H105.272V46.71C105.425 46.2893 105.638 45.9426 105.914 45.6697C106.189 45.3912 106.502 45.1837 106.854 45.0473C107.211 44.9109 107.58 44.8427 107.96 44.8427C108.095 44.8427 108.227 44.8512 108.356 44.8682C108.485 44.8853 108.584 44.9137 108.654 44.9535V46.4798C108.567 46.44 108.452 46.4144 108.312 46.403C108.177 46.386 108.063 46.3774 107.969 46.3774C107.606 46.3547 107.266 46.3774 106.95 46.4457C106.634 46.5082 106.356 46.619 106.116 46.7782C105.876 46.9374 105.685 47.1477 105.545 47.4092C105.41 47.665 105.343 47.9776 105.343 48.3471V53.8297H103.726Z" fill="white"/>
<path d="M114.089 54.0002C113.251 54.0002 112.519 53.8268 111.893 53.4801C111.272 53.1276 110.789 52.6132 110.443 51.9368C110.098 51.2603 109.925 50.4332 109.925 49.4555C109.925 48.5347 110.086 47.7275 110.408 47.034C110.73 46.3405 111.202 45.8033 111.822 45.4225C112.443 45.0359 113.201 44.8427 114.097 44.8427C114.935 44.8427 115.661 45.0217 116.276 45.3798C116.891 45.7323 117.368 46.2524 117.708 46.9402C118.053 47.628 118.226 48.4665 118.226 49.4555C118.226 50.3537 118.068 51.1438 117.752 51.8259C117.436 52.508 116.97 53.0424 116.355 53.4289C115.746 53.8098 114.991 54.0002 114.089 54.0002ZM114.097 52.7553C114.636 52.7553 115.093 52.6217 115.468 52.3546C115.843 52.0874 116.127 51.7037 116.32 51.2035C116.519 50.7033 116.619 50.1092 116.619 49.4214C116.619 48.7905 116.531 48.2249 116.355 47.7246C116.185 47.2187 115.916 46.818 115.547 46.5224C115.178 46.2268 114.695 46.079 114.097 46.079C113.547 46.079 113.081 46.2126 112.701 46.4798C112.32 46.7412 112.03 47.1221 111.831 47.6223C111.638 48.1225 111.541 48.7222 111.541 49.4214C111.541 50.041 111.626 50.6038 111.796 51.1097C111.972 51.6156 112.247 52.0163 112.622 52.3119C113.002 52.6075 113.494 52.7553 114.097 52.7553Z" fill="white"/>
<path d="M120.386 53.8297V45.0132H121.958V46.2922C122.105 46.0477 122.307 45.8175 122.564 45.6015C122.828 45.3855 123.144 45.2121 123.513 45.0814C123.888 44.9507 124.318 44.8853 124.804 44.8853C125.378 44.8853 125.905 44.9961 126.386 45.2178C126.872 45.4395 127.258 45.7863 127.545 46.2581C127.838 46.7242 127.984 47.3267 127.984 48.0657V53.8297H126.359V48.2192C126.359 47.5314 126.172 47.0226 125.797 46.6929C125.428 46.3575 124.948 46.1899 124.356 46.1899C123.947 46.1899 123.563 46.2552 123.206 46.386C122.848 46.511 122.559 46.7043 122.336 46.9658C122.114 47.2216 122.002 47.5456 122.002 47.9378V53.8297H120.386Z" fill="white"/>
<path d="M130.57 53.8297V45.0132H132.142V53.8297H130.57ZM130.526 43.1459V41.5088H132.186V43.1459H130.526Z" fill="white"/>
<path d="M138.521 54.0002C137.701 54.0002 136.975 53.8268 136.342 53.4801C135.716 53.1333 135.224 52.6217 134.867 51.9453C134.515 51.2689 134.339 50.4389 134.339 49.4555C134.339 48.5347 134.501 47.7303 134.823 47.0425C135.151 46.349 135.625 45.809 136.246 45.4225C136.872 45.0359 137.631 44.8427 138.521 44.8427C139.171 44.8427 139.754 44.9649 140.269 45.2093C140.79 45.448 141.218 45.7891 141.551 46.2325C141.885 46.6759 142.09 47.1988 142.166 47.8014H140.726C140.673 47.4944 140.55 47.213 140.357 46.9572C140.169 46.7015 139.921 46.4968 139.61 46.3433C139.306 46.1899 138.945 46.1131 138.53 46.1131C137.751 46.1131 137.115 46.386 136.623 46.9317C136.137 47.4774 135.894 48.313 135.894 49.4385C135.894 50.456 136.117 51.2717 136.562 51.8856C137.013 52.4938 137.675 52.798 138.547 52.798C138.963 52.798 139.326 52.7212 139.636 52.5677C139.947 52.4086 140.196 52.2011 140.383 51.9453C140.571 51.6838 140.691 51.4053 140.743 51.1097H142.158C142.081 51.7009 141.874 52.2125 141.534 52.6445C141.2 53.0765 140.773 53.4119 140.251 53.6506C139.736 53.8837 139.159 54.0002 138.521 54.0002Z" fill="white"/>
<path d="M147.639 54.0002C147.007 54.0002 146.418 53.9064 145.874 53.7188C145.335 53.5256 144.887 53.2271 144.53 52.8235C144.172 52.4143 143.95 51.8941 143.862 51.2632H145.338C145.414 51.6099 145.56 51.8998 145.777 52.1329C145.994 52.3603 146.26 52.5336 146.576 52.653C146.899 52.7667 147.25 52.8235 147.631 52.8235C148.246 52.8235 148.74 52.7127 149.115 52.491C149.49 52.2693 149.677 51.9282 149.677 51.4678C149.677 51.1438 149.578 50.8852 149.379 50.6919C149.185 50.4929 148.881 50.348 148.465 50.257L146.585 49.8051C145.853 49.6346 145.268 49.3674 144.828 49.0036C144.395 48.6398 144.175 48.1311 144.17 47.4774C144.17 46.9601 144.298 46.5053 144.556 46.1131C144.814 45.7209 145.197 45.4111 145.707 45.1837C146.222 44.9563 146.863 44.8427 147.631 44.8427C148.62 44.8427 149.417 45.0587 150.02 45.4907C150.623 45.917 150.939 46.5451 150.969 47.3751H149.528C149.469 46.9544 149.276 46.6219 148.948 46.3774C148.62 46.1273 148.175 46.0023 147.613 46.0023C147.039 46.0023 146.568 46.116 146.199 46.3433C145.836 46.565 145.654 46.9118 145.654 47.3836C145.654 47.6962 145.783 47.9435 146.041 48.1254C146.304 48.3016 146.685 48.4494 147.183 48.5688L149.01 49.0122C149.426 49.1202 149.771 49.2623 150.046 49.4385C150.322 49.6147 150.538 49.8108 150.696 50.0268C150.854 50.2428 150.966 50.4702 151.03 50.7089C151.1 50.942 151.136 51.1665 151.136 51.3825C151.136 51.9226 150.998 52.3887 150.723 52.7809C150.447 53.1674 150.049 53.4687 149.528 53.6847C149.007 53.895 148.377 54.0002 147.639 54.0002Z" fill="white"/>
</svg>
