<?xml version="1.0" encoding="UTF-8"?>
<svg id="Anchors-2" data-name="Anchors" xmlns="http://www.w3.org/2000/svg" viewBox="0 0 3387.78 1080">
  <defs>
    <style>
      .cls-1 {
        fill: #fafdff;
      }

      .cls-2, .cls-3 {
        fill: #0090fc;
      }

      .cls-3 {
        fill-rule: evenodd;
      }
    </style>
  </defs>
  <path class="cls-1" d="M1987.33,637.95l-89.82-192.23c26.38-10.46,46.9-26.38,61.56-47.74,14.66-21.36,21.98-46.9,21.98-76.64,0-42.72-14.76-76.96-44.28-102.71-29.53-25.75-71.52-38.63-125.96-38.63h-160.81v458.57h87.94v-177.14h75.38l86.06,176.52h87.94ZM1873.32,368.14c-12.36,10.27-33.2,15.39-62.51,15.39h-72.87v-126.27h72.87c29.73,0,50.67,5.13,62.82,15.39,12.14,10.27,18.21,26.49,18.21,48.69,0,20.94-6.18,36.54-18.53,46.8Z"/>
  <rect class="cls-2" x="2037.59" y="180.62" width="89.2" height="89.38"/>
  <rect class="cls-1" x="2037.59" y="311.28" width="89.2" height="327.29"/>
  <polygon class="cls-1" points="2532.6 311.28 2439.63 311.28 2355.45 518.59 2271.27 311.28 2177.04 311.28 2314.61 638.57 2395.02 638.57 2532.6 311.28"/>
  <path class="cls-1" d="M2759.37,556.28c-15.5,8.8-32.89,13.19-52.14,13.19-21.37,0-40.21-5.65-56.55-16.95-16.33-11.31-27.22-27.65-32.66-49h269.5c1.66-8.37,2.51-18.42,2.51-30.16,0-34.33-7.86-64.59-23.56-90.77-15.71-26.17-37.27-46.38-64.71-60.63-27.43-14.23-58.53-21.36-93.29-21.36s-64.19,6.92-92.03,20.73c-27.85,13.83-49.94,33.82-66.27,59.99-16.34,26.18-24.5,56.85-24.5,92.03s7.85,63.98,23.55,90.15c15.71,26.18,37.27,46.39,64.71,60.62,27.43,14.23,58.52,21.36,93.3,21.36,45.22,0,83.86-11.62,115.89-34.87,25.51-18.5,43.65-42.06,54.69-70.51h-98.5c-5.62,6.42-12.26,11.82-19.94,16.18ZM2654.78,391.07c16.11-9.63,34.01-14.45,53.7-14.45,20.94,0,39.16,4.72,54.66,14.13,15.49,9.43,26.38,23.77,32.67,43.03h-175.27c6.7-18.85,18.11-33.08,34.24-42.71Z"/>
  <polygon class="cls-1" points="3138.16 311.28 2940.29 311.28 2940.29 638.57 3028.86 638.57 3028.86 387.29 3138.16 387.29 3138.16 311.28"/>
  <g>
    <polygon class="cls-1" points="1650 900 1780.68 900 1780.68 879.39 1670.61 879.39 1670.61 838.16 1774.92 838.16 1774.92 817.54 1670.61 817.54 1670.61 776.32 1780.68 776.32 1780.68 755.7 1650 755.7 1650 900"/>
    <polygon class="cls-1" points="1835.55 755.7 1814.93 755.7 1814.93 900 1942.12 900 1942.12 879.39 1835.55 879.39 1835.55 755.7"/>
    <polygon class="cls-1" points="1968.74 900 2099.42 900 2099.42 879.39 1989.35 879.39 1989.35 838.16 2093.65 838.16 2093.65 817.54 1989.35 817.54 1989.35 776.32 2099.42 776.32 2099.42 755.7 1968.74 755.7 1968.74 900"/>
    <path class="cls-1" d="M2156.25,785.7c6.24-6.25,13.77-9.38,22.57-9.38h51.33c7.14,0,13.5,2.06,19.07,6.19,5.56,4.12,9.37,9.55,11.43,16.28l19.79-5.98c-3.43-11.13-9.75-20.1-18.95-26.9-9.21-6.8-19.66-10.21-31.33-10.21h-51.33c-9.48,0-18.27,2.34-26.38,7.01-8.11,4.67-14.5,11.06-19.17,19.17-4.67,8.11-7.01,16.9-7.01,26.39v39.16c0,14.57,5.12,26.97,15.36,37.21,10.23,10.24,22.63,15.36,37.2,15.36h51.33c10.44,0,20.02-2.85,28.75-8.56,8.72-5.7,15.22-13.3,19.48-22.78l-18.97-8.45c-2.61,5.91-6.56,10.59-11.85,14.02-5.3,3.44-11.09,5.16-17.42,5.16h-51.33c-8.8,0-16.32-3.12-22.57-9.38-6.26-6.25-9.38-13.77-9.38-22.57v-39.16c0-8.8,3.12-16.32,9.38-22.57Z"/>
    <polygon class="cls-1" points="2297.99 776.32 2358.59 776.32 2358.59 900 2379.21 900 2379.21 776.32 2439.82 776.32 2439.82 755.7 2297.99 755.7 2297.99 776.32"/>
    <path class="cls-1" d="M2567.64,853.82h1l.04-.1c5.33-.12,10.3-1.14,14.9-3.13.1-.05.18-.11.29-.16,2.19-.97,4.3-2.09,6.31-3.48,1.79-1.22,3.48-2.71,5.14-4.28.31-.3.66-.5.97-.82,7.97-7.97,11.95-17.52,11.95-28.65v-16.9c0-7.81-2.08-14.8-6-21.05-1.66-2.66-3.57-5.22-5.95-7.6-7.98-7.97-17.52-11.96-28.65-11.96h-101.21v144.3h20.61v-46.18h48.85l46.18,46.18h29.27l-46.38-46.18h2.68ZM2487.04,833.21v-56.89h80.6c5.49,0,10.2,1.96,14.12,5.87,3.19,3.2,4.75,7.06,5.34,11.3.13.96.54,1.81.54,2.82v16.9c0,3.58-.9,6.9-2.68,10-1.28,2.22-3.02,3.98-4.98,5.53-.76.61-1.47,1.28-2.34,1.79-.18.1-.37.13-.54.22-2.95,1.6-6.09,2.45-9.46,2.45h-80.6Z"/>
    <path class="cls-1" d="M2759.58,764.77c-10.45-6.04-21.79-9.07-34.02-9.07h-20.82c-12.23,0-23.57,3.03-34.02,9.07-10.44,6.05-18.68,14.3-24.73,24.74-6.05,10.44-9.07,21.78-9.07,34.01v8.66c0,9.21,1.78,18,5.35,26.38,3.57,8.39,8.38,15.6,14.43,21.65,6.04,6.05,13.26,10.86,21.64,14.43,8.38,3.57,17.18,5.36,26.38,5.36h20.82c12.23,0,23.57-3.02,34.02-9.07,10.44-6.05,18.68-14.29,24.74-24.74,6.05-10.44,9.08-21.78,9.08-34.01v-8.66c0-12.23-3.03-23.57-9.08-34.01-6.05-10.44-14.3-18.69-24.74-24.74ZM2772.77,832.18c0,13.06-4.61,24.19-13.81,33.39s-20.33,13.81-33.39,13.81h-20.82c-13.05,0-24.19-4.61-33.39-13.81-9.21-9.2-13.81-20.34-13.81-33.39v-8.66c0-6.32,1.24-12.4,3.72-18.24,2.47-5.84,5.83-10.88,10.09-15.15,4.26-4.26,9.31-7.62,15.15-10.1,5.84-2.47,11.92-3.71,18.24-3.71h20.82c12.92,0,24.02,4.6,33.29,13.81,9.28,9.21,13.91,20.34,13.91,33.39v8.66Z"/>
    <polygon class="cls-1" points="2947.81 871.76 2850.51 755.7 2826.6 755.7 2826.6 900 2847.22 900 2847.22 783.95 2944.51 900 2968.42 900 2968.42 755.7 2947.81 755.7 2947.81 871.76"/>
    <rect class="cls-1" x="3008.23" y="755.7" width="20.62" height="144.3"/>
    <path class="cls-1" d="M3094.94,785.7c6.25-6.25,13.78-9.38,22.57-9.38h51.34c7.14,0,13.5,2.06,19.06,6.19,5.56,4.12,9.38,9.55,11.44,16.28l19.79-5.98c-3.43-11.13-9.76-20.1-18.96-26.9-9.2-6.8-19.65-10.21-31.33-10.21h-51.34c-9.47,0-18.27,2.34-26.38,7.01-8.11,4.67-14.51,11.06-19.17,19.17-4.67,8.11-7.01,16.9-7.01,26.39v39.16c0,14.57,5.11,26.97,15.36,37.21,10.24,10.24,22.63,15.36,37.2,15.36h51.34c10.44,0,20.02-2.85,28.75-8.56,8.73-5.7,15.23-13.3,19.48-22.78l-18.96-8.45c-2.61,5.91-6.56,10.59-11.85,14.02-5.3,3.44-11.1,5.16-17.42,5.16h-51.34c-8.79,0-16.31-3.12-22.57-9.38-6.25-6.25-9.37-13.77-9.37-22.57v-39.16c0-8.8,3.12-16.32,9.37-22.57Z"/>
    <path class="cls-1" d="M3377.59,833.83c-6.81-7.56-15.3-11.82-25.46-12.78l-68.44-7.01c-4.81-.41-8.86-2.4-12.16-5.98-3.29-3.57-4.94-7.83-4.94-12.78,0-5.22,1.85-9.69,5.56-13.4,3.71-3.71,8.18-5.56,13.4-5.56h55.66c3.98,0,7.76.9,11.34,2.68,3.57,1.79,6.59,4.23,9.07,7.32,2.47,3.09,4.12,6.56,4.94,10.41l20.21-4.33c-2.34-10.58-7.8-19.34-16.39-26.28-8.59-6.94-18.31-10.41-29.17-10.41h-55.66c-7.14,0-13.74,1.76-19.79,5.26-6.05,3.51-10.86,8.32-14.43,14.43-3.57,6.12-5.36,12.75-5.36,19.89,0,6.74,1.55,12.99,4.64,18.76,3.09,5.77,7.35,10.48,12.78,14.12,5.43,3.64,11.51,5.8,18.24,6.49l68.43,7.01c2.48.14,4.74.76,6.81,1.86,2.06,1.1,3.85,2.48,5.35,4.13,1.51,1.64,2.71,3.61,3.61,5.87.9,2.27,1.34,4.57,1.34,6.9,0,5.22-1.86,9.69-5.56,13.4s-8.18,5.57-13.4,5.57h-61.22c-5.77,0-10.93-1.65-15.47-4.95-4.53-3.3-7.69-7.69-9.48-13.19l-19.58,6.38c3.16,9.62,8.8,17.42,16.9,23.4,8.11,5.98,17.32,8.97,27.63,8.97h61.22c10.85,0,20.16-3.88,27.93-11.65,7.77-7.76,11.64-17.07,11.64-27.93,0-10.17-3.4-19.03-10.2-26.59Z"/>
  </g>
  <polygon class="cls-3" points="0 0 0 270 271.04 270 0 0"/>
  <g>
    <polyline class="cls-3" points="476.75 540 813.13 1080 1320 1080 1320 1080 813.13 540"/>
    <polyline class="cls-3" points="476.75 0 813.13 540 1320 540 1320 540 813.13 0"/>
  </g>
  <polyline class="cls-3" points="0 270 0 1080 813.13 1080 813.13 1080 0 270"/>
</svg>