<svg width="102" height="34" viewBox="0 0 102 34" fill="none" xmlns="http://www.w3.org/2000/svg">
<g clip-path="url(#clip0_56_256)">
<rect width="34" height="34" rx="8.5" fill="#010101"/>
<rect width="62.4836" height="62.4836" fill="url(#paint0_linear_56_256)"/>
<g filter="url(#filter0_d_56_256)">
<path d="M25.7147 21.6267V26.9998L18.6307 21.4929L22.0389 18.8982L25.7147 21.6267ZM20.1874 17.5261V17.0271H20.1893V18.0271H20.1874V17.5271L7.828 26.9041V21.573L16.7225 14.9539L20.1874 17.5261ZM21.9022 26.8445H11.6024L16.786 22.8972L21.9022 26.8445ZM14.8593 13.5691L7.828 18.9793V13.4949L11.2743 10.908L14.8593 13.5691ZM25.7411 13.5847L25.6884 18.9314L13.2968 9.38943L16.7421 6.80349L25.7411 13.5847Z" fill="white"/>
</g>
</g>
<path d="M42.7428 19.3435V0.999989H50.4071C51.8562 0.999989 53.0415 1.23256 53.9628 1.6977C54.8842 2.16285 55.5627 2.80982 55.9983 3.63862C56.4338 4.45896 56.6516 5.40616 56.6516 6.48022C56.6516 7.44434 56.5009 8.26045 56.1993 8.92857C55.9061 9.58822 55.5166 10.1379 55.0308 10.5777C54.5534 11.0175 54.0299 11.3769 53.4603 11.656L56.8401 19.3435H53.0331L50.0804 12.2776H46.399V19.3435H42.7428ZM46.399 9.42331H49.7538C50.7338 9.42331 51.5086 9.15691 52.0782 8.62411C52.6561 8.09131 52.9451 7.40628 52.9451 6.56902C52.9451 5.72331 52.6687 5.05519 52.1159 4.56468C51.563 4.07416 50.8636 3.82891 50.0176 3.82891H46.399V9.42331Z" fill="#010101"/>
<path d="M59.739 19.3435V6.22651H63.2444V19.3435H59.739ZM59.7013 4.34902V1.01267H63.2696V4.34902H59.7013Z" fill="#010101"/>
<path d="M70.0443 19.3435L65.1693 6.22651H68.4864L71.3259 14.5864H71.4264L74.2283 6.22651H77.583L72.708 19.3435H70.0443Z" fill="#010101"/>
<path d="M85.0559 19.5973C83.766 19.5973 82.631 19.3266 81.6509 18.7854C80.6793 18.2357 79.9212 17.4618 79.3768 16.4639C78.8323 15.4659 78.5601 14.2904 78.5601 12.9373C78.5601 11.6264 78.8072 10.4466 79.3014 9.39794C79.804 8.3408 80.5243 7.50777 81.4625 6.89885C82.4006 6.28148 83.5356 5.97279 84.8674 5.97279C86.1909 5.97279 87.3008 6.25611 88.197 6.82274C89.0933 7.38091 89.7718 8.16319 90.2325 9.16959C90.6931 10.1675 90.9235 11.3219 90.9235 12.6328V13.635H82.1912C82.1912 14.3031 82.3001 14.8866 82.5179 15.3856C82.7357 15.8761 83.0498 16.2567 83.4602 16.5273C83.879 16.7895 84.3816 16.9206 84.968 16.9206C85.5962 16.9206 86.1448 16.7853 86.6139 16.5146C87.083 16.244 87.4138 15.8 87.6065 15.1826H90.9109C90.7602 16.1129 90.3916 16.9079 89.8053 17.5675C89.2189 18.2272 88.5069 18.7304 87.6693 19.0771C86.8317 19.4239 85.9605 19.5973 85.0559 19.5973ZM82.1912 11.4277H87.4934C87.4934 10.9033 87.3929 10.4213 87.1919 9.98148C86.9992 9.54171 86.706 9.19497 86.3124 8.94125C85.927 8.68754 85.4412 8.56068 84.8549 8.56068C84.2937 8.56068 83.812 8.70022 83.41 8.97931C83.0163 9.24994 82.7105 9.60514 82.4928 10.0449C82.2834 10.4847 82.1828 10.9456 82.1912 11.4277Z" fill="#010101"/>
<path d="M93.5663 19.3435V6.22651H97.097V9.33451C97.3064 8.66639 97.5995 8.08285 97.9765 7.58388C98.3618 7.07645 98.8267 6.68319 99.3711 6.40411C99.9156 6.11656 100.531 5.97279 101.218 5.97279C101.335 5.97279 101.444 5.98125 101.545 5.99816C101.654 6.00662 101.733 6.02354 101.783 6.04891V9.57554C101.708 9.54171 101.616 9.52057 101.507 9.51211C101.407 9.50365 101.314 9.4952 101.231 9.48674C100.51 9.42754 99.8946 9.44868 99.3837 9.55017C98.8727 9.65165 98.4581 9.82502 98.1398 10.0703C97.8215 10.3155 97.5912 10.6158 97.4488 10.971C97.3064 11.3262 97.2352 11.7237 97.2352 12.1634V19.3435H93.5663Z" fill="#010101"/>
<path d="M42.7429 32.8862V24.6666H48.0838L48.078 25.5931H43.8322V28.2762H47.6563V29.197H43.8263V31.9369L48.1951 31.9483V32.8862H42.7429Z" fill="#010101"/>
<path d="M51.1633 32.9601C50.8354 32.9601 50.5699 32.9165 50.3669 32.8293C50.1678 32.7422 50.0135 32.6247 49.9042 32.4769C49.7988 32.3291 49.7266 32.1605 49.6875 31.971C49.6524 31.7777 49.6348 31.5788 49.6348 31.3741V24.4392H50.7007V31.2718C50.7007 31.5674 50.7592 31.7891 50.8764 31.9369C50.9974 32.0847 51.1653 32.1662 51.38 32.1813L51.708 32.187V32.8691C51.6182 32.8957 51.5245 32.9165 51.4269 32.9317C51.3293 32.9506 51.2414 32.9601 51.1633 32.9601Z" fill="#010101"/>
<path d="M55.4539 32.9999C54.8917 32.9999 54.3958 32.8805 53.9664 32.6418C53.5369 32.403 53.2012 32.0601 52.9591 31.6129C52.717 31.1657 52.596 30.6295 52.596 30.0042C52.596 29.3865 52.7053 28.8446 52.924 28.3785C53.1426 27.9124 53.4588 27.5486 53.8727 27.2871C54.2904 27.0256 54.7921 26.8949 55.3777 26.8949C55.9478 26.8949 56.4299 27.0142 56.8242 27.253C57.2186 27.4917 57.5172 27.829 57.7203 28.2648C57.9272 28.6968 58.0306 29.2103 58.0306 29.8053V30.1918H53.6911C53.6911 30.5632 53.7536 30.9004 53.8785 31.2036C54.0074 31.503 54.2006 31.7417 54.4583 31.9198C54.716 32.0979 55.042 32.187 55.4363 32.187C55.8228 32.187 56.1547 32.0998 56.4319 31.9255C56.713 31.7512 56.8926 31.4992 56.9707 31.1695H57.9896C57.9194 31.5674 57.7554 31.9028 57.4977 32.1756C57.2439 32.4485 56.9375 32.655 56.5783 32.7952C56.223 32.9317 55.8482 32.9999 55.4539 32.9999ZM53.697 29.4812H56.9882C56.9882 29.144 56.9297 28.8408 56.8125 28.5718C56.6954 28.2989 56.5158 28.0848 56.2738 27.9294C56.0356 27.7703 55.735 27.6907 55.3719 27.6907C54.9932 27.6907 54.6789 27.7797 54.429 27.9578C54.1792 28.1322 53.9937 28.3576 53.8727 28.6343C53.7517 28.9071 53.6931 29.1895 53.697 29.4812Z" fill="#010101"/>
<path d="M61.965 32.9999C61.4184 32.9999 60.9343 32.8843 60.5126 32.6531C60.0949 32.422 59.7669 32.0809 59.5287 31.6299C59.2945 31.179 59.1774 30.6257 59.1774 29.9701C59.1774 29.3562 59.2847 28.82 59.4995 28.3614C59.7181 27.8991 60.0343 27.5391 60.4482 27.2814C60.8659 27.0237 61.3715 26.8949 61.965 26.8949C62.3983 26.8949 62.7868 26.9763 63.1304 27.1393C63.4778 27.2985 63.7628 27.5258 63.9854 27.8214C64.2079 28.117 64.3446 28.4656 64.3953 28.8673H63.4349C63.3997 28.6627 63.3178 28.4751 63.1889 28.3046C63.064 28.1341 62.8981 27.9976 62.6911 27.8953C62.4881 27.793 62.248 27.7418 61.9708 27.7418C61.4516 27.7418 61.028 27.9237 60.7 28.2875C60.376 28.6513 60.2139 29.2084 60.2139 29.9587C60.2139 30.6371 60.3623 31.1809 60.659 31.5901C60.9596 31.9956 61.4008 32.1984 61.9825 32.1984C62.2597 32.1984 62.5018 32.1472 62.7087 32.0449C62.9156 31.9388 63.0816 31.8005 63.2065 31.6299C63.3314 31.4556 63.4115 31.2699 63.4466 31.0729H64.3895C64.3387 31.467 64.2001 31.808 63.9737 32.0961C63.7511 32.3841 63.4661 32.6076 63.1186 32.7668C62.7751 32.9222 62.3905 32.9999 61.965 32.9999Z" fill="#010101"/>
<path d="M67.8448 32.9146C67.427 32.9146 67.103 32.8597 66.8726 32.7498C66.6423 32.6399 66.4802 32.4769 66.3865 32.2609C66.2967 32.0449 66.2518 31.7796 66.2518 31.4651V27.7759H65.268V27.0086H66.2811L66.5447 25.2976H67.3411V27.0029H68.7056V27.7759H67.3411V31.431C67.3411 31.6394 67.3626 31.7929 67.4055 31.8914C67.4524 31.9862 67.5285 32.0468 67.6339 32.0733C67.7393 32.0998 67.8877 32.1131 68.079 32.1131H68.7408V32.818C68.6666 32.8445 68.5534 32.8672 68.4011 32.8862C68.2527 32.9051 68.0673 32.9146 67.8448 32.9146Z" fill="#010101"/>
<path d="M70.1776 32.8862V27.0086H71.2083V28.1397C71.3098 27.8593 71.4523 27.6281 71.6358 27.4462C71.8193 27.2606 72.0281 27.1222 72.2624 27.0313C72.5006 26.9403 72.7465 26.8949 73.0003 26.8949C73.0901 26.8949 73.1779 26.9005 73.2638 26.9119C73.3497 26.9233 73.4161 26.9422 73.4629 26.9688V27.9863C73.4044 27.9597 73.3282 27.9427 73.2345 27.9351C73.1447 27.9237 73.0686 27.918 73.0061 27.918C72.7641 27.9029 72.5376 27.918 72.3268 27.9635C72.116 28.0052 71.9305 28.0791 71.7705 28.1852C71.6104 28.2913 71.4835 28.4315 71.3898 28.6059C71.3 28.7764 71.2551 28.9848 71.2551 29.2311V32.8862H70.1776Z" fill="#010101"/>
<path d="M77.0858 32.9999C76.5275 32.9999 76.0395 32.8843 75.6217 32.6531C75.2079 32.4182 74.8858 32.0752 74.6554 31.6243C74.4251 31.1733 74.3099 30.6219 74.3099 29.9701C74.3099 29.3562 74.4173 28.8181 74.632 28.3557C74.8467 27.8934 75.161 27.5353 75.5749 27.2814C75.9887 27.0237 76.4943 26.8949 77.0916 26.8949C77.6499 26.8949 78.134 27.0142 78.544 27.253C78.9539 27.4879 79.2721 27.8347 79.4986 28.2932C79.7289 28.7518 79.8441 29.3107 79.8441 29.9701C79.8441 30.5689 79.7387 31.0956 79.5278 31.5504C79.317 32.0051 79.0066 32.3613 78.5967 32.619C78.1907 32.8729 77.687 32.9999 77.0858 32.9999ZM77.0916 32.17C77.4508 32.17 77.7553 32.0809 78.0052 31.9028C78.2551 31.7247 78.4444 31.4689 78.5733 31.1354C78.706 30.8019 78.7724 30.4059 78.7724 29.9474C78.7724 29.5267 78.7138 29.1497 78.5967 28.8162C78.4835 28.4789 78.3039 28.2117 78.0579 28.0147C77.812 27.8176 77.4899 27.7191 77.0916 27.7191C76.7246 27.7191 76.4143 27.8082 76.1605 27.9863C75.9067 28.1606 75.7135 28.4145 75.5807 28.748C75.4519 29.0814 75.3875 29.4812 75.3875 29.9474C75.3875 30.3604 75.4441 30.7356 75.5573 31.0729C75.6744 31.4101 75.8579 31.6773 76.1078 31.8744C76.3615 32.0714 76.6895 32.17 77.0916 32.17Z" fill="#010101"/>
<path d="M81.2839 32.8862V27.0086H82.3322V27.8612C82.4298 27.6983 82.5645 27.5448 82.7363 27.4008C82.9119 27.2568 83.1228 27.1412 83.3687 27.054C83.6186 26.9669 83.9056 26.9233 84.2296 26.9233C84.6122 26.9233 84.9636 26.9972 85.2837 27.145C85.6078 27.2928 85.8655 27.5239 86.0568 27.8385C86.252 28.1492 86.3496 28.5509 86.3496 29.0436V32.8862H85.2662V29.1459C85.2662 28.6873 85.1412 28.3482 84.8914 28.1284C84.6454 27.9048 84.3253 27.793 83.9309 27.793C83.6576 27.793 83.4019 27.8366 83.1638 27.9237C82.9256 28.0071 82.7323 28.1359 82.584 28.3103C82.4356 28.4808 82.3615 28.6968 82.3615 28.9583V32.8862H81.2839Z" fill="#010101"/>
<path d="M88.0731 32.8862V27.0086H89.1213V32.8862H88.0731ZM88.0438 25.7637V24.6723H89.1506V25.7637H88.0438Z" fill="#010101"/>
<path d="M93.3738 32.9999C92.8272 32.9999 92.3431 32.8843 91.9215 32.6531C91.5037 32.422 91.1758 32.0809 90.9376 31.6299C90.7034 31.179 90.5862 30.6257 90.5862 29.9701C90.5862 29.3562 90.6936 28.82 90.9083 28.3614C91.127 27.8991 91.4432 27.5391 91.857 27.2814C92.2748 27.0237 92.7804 26.8949 93.3738 26.8949C93.8072 26.8949 94.1956 26.9763 94.5392 27.1393C94.8867 27.2985 95.1717 27.5258 95.3942 27.8214C95.6168 28.117 95.7534 28.4656 95.8042 28.8673H94.8437C94.8086 28.6627 94.7266 28.4751 94.5978 28.3046C94.4728 28.1341 94.3069 27.9976 94.1 27.8953C93.897 27.793 93.6569 27.7418 93.3797 27.7418C92.8604 27.7418 92.4368 27.9237 92.1089 28.2875C91.7848 28.6513 91.6228 29.2084 91.6228 29.9587C91.6228 30.6371 91.7712 31.1809 92.0679 31.5901C92.3685 31.9956 92.8097 32.1984 93.3914 32.1984C93.6686 32.1984 93.9106 32.1472 94.1176 32.0449C94.3245 31.9388 94.4904 31.8005 94.6153 31.6299C94.7403 31.4556 94.8203 31.2699 94.8555 31.0729H95.7983C95.7476 31.467 95.609 31.808 95.3825 32.0961C95.16 32.3841 94.875 32.6076 94.5275 32.7668C94.1839 32.9222 93.7994 32.9999 93.3738 32.9999Z" fill="#010101"/>
<path d="M99.4528 32.9999C99.0312 32.9999 98.6388 32.9373 98.2757 32.8123C97.9165 32.6834 97.6179 32.4845 97.3797 32.2154C97.1415 31.9426 96.9932 31.5958 96.9346 31.1752H97.9185C97.9692 31.4064 98.0668 31.5996 98.2113 31.755C98.3557 31.9066 98.5334 32.0222 98.7442 32.1017C98.9589 32.1775 99.1932 32.2154 99.447 32.2154C99.8569 32.2154 100.187 32.1415 100.437 31.9937C100.687 31.8459 100.811 31.6186 100.811 31.3116C100.811 31.0956 100.745 30.9232 100.612 30.7943C100.484 30.6617 100.281 30.5651 100.003 30.5044L98.7501 30.2032C98.262 30.0895 97.8716 29.9114 97.5788 29.6688C97.2899 29.4263 97.1435 29.0871 97.1396 28.6513C97.1396 28.3065 97.2255 28.0033 97.3973 27.7418C97.569 27.4804 97.8248 27.2738 98.1644 27.1222C98.508 26.9707 98.9355 26.8949 99.447 26.8949C100.107 26.8949 100.638 27.0389 101.04 27.3269C101.442 27.6111 101.653 28.0298 101.672 28.5831H100.712C100.673 28.3027 100.544 28.081 100.325 27.918C100.107 27.7513 99.81 27.6679 99.4352 27.6679C99.0526 27.6679 98.7383 27.7437 98.4924 27.8953C98.2503 28.0431 98.1293 28.2743 98.1293 28.5888C98.1293 28.7972 98.2152 28.9621 98.387 29.0833C98.5627 29.2008 98.8164 29.2993 99.1483 29.3789L100.366 29.6745C100.644 29.7465 100.874 29.8413 101.057 29.9587C101.241 30.0762 101.385 30.207 101.491 30.351C101.596 30.495 101.67 30.6465 101.713 30.8057C101.76 30.9611 101.784 31.1108 101.784 31.2548C101.784 31.6148 101.692 31.9255 101.508 32.187C101.325 32.4447 101.059 32.6455 100.712 32.7895C100.364 32.9298 99.9447 32.9999 99.4528 32.9999Z" fill="#010101"/>
<defs>
<filter id="filter0_d_56_256" x="2.29382" y="3.88748" width="29.75" height="29.75" filterUnits="userSpaceOnUse" color-interpolation-filters="sRGB">
<feFlood flood-opacity="0" result="BackgroundImageFix"/>
<feColorMatrix in="SourceAlpha" type="matrix" values="0 0 0 0 0 0 0 0 0 0 0 0 0 0 0 0 0 0 127 0" result="hardAlpha"/>
<feMorphology radius="1.0625" operator="erode" in="SourceAlpha" result="effect1_dropShadow_56_256"/>
<feOffset dy="1.59375"/>
<feGaussianBlur stdDeviation="1.59375"/>
<feComposite in2="hardAlpha" operator="out"/>
<feColorMatrix type="matrix" values="0 0 0 0 0.141176 0 0 0 0 0.141176 0 0 0 0 0.141176 0 0 0 0.1 0"/>
<feBlend mode="normal" in2="BackgroundImageFix" result="effect1_dropShadow_56_256"/>
<feBlend mode="normal" in="SourceGraphic" in2="effect1_dropShadow_56_256" result="shape"/>
</filter>
<linearGradient id="paint0_linear_56_256" x1="31.2418" y1="7.75899e-07" x2="33.8453" y2="62.4836" gradientUnits="userSpaceOnUse">
<stop stop-color="white" stop-opacity="0"/>
<stop offset="1" stop-color="white" stop-opacity="0.12"/>
</linearGradient>
<clipPath id="clip0_56_256">
<rect width="34" height="34" rx="8.5" fill="white"/>
</clipPath>
</defs>
</svg>
